<svg width="74" height="58" viewBox="0 0 74 58" fill="none" xmlns="http://www.w3.org/2000/svg">
<rect x="-10" width="84" height="58" rx="6" fill="#252422"/>
<path d="M46.2133 35.8645L42.0179 31.7069C40.5196 30.2221 37.9724 30.8161 37.373 32.7463C36.9235 34.0828 35.4251 34.8252 34.0766 34.5282C31.0799 33.7857 27.0344 29.9251 26.2852 26.8069C25.8357 25.4705 26.7347 23.9856 28.0832 23.5402C30.0311 22.9463 30.6304 20.422 29.1321 18.9372L24.9367 14.7796C23.738 13.7401 21.9399 13.7401 20.8911 14.7796L18.0442 17.6008C15.1973 20.5705 18.3439 28.4402 25.3862 35.4191C32.4284 42.3979 40.3697 45.6647 43.3664 42.6949L46.2133 39.8736C47.2622 38.6858 47.2622 36.9039 46.2133 35.8645Z" fill="#F1EFE3"/>
</svg>
