<svg width="74" height="58" viewBox="0 0 74 58" fill="none" xmlns="http://www.w3.org/2000/svg">
<rect x="-10" width="84" height="58" rx="6" fill="#252422"/>
<path fill-rule="evenodd" clip-rule="evenodd" d="M21.1659 17.7633L29.2705 25.8715C31.0382 27.6358 33.9277 27.6373 35.6968 25.8715L43.8015 17.7633C43.8831 17.6817 43.8712 17.5473 43.7765 17.4813C42.9499 16.9048 41.9441 16.563 40.8607 16.563H24.1067C23.0232 16.563 22.0175 16.9048 21.1908 17.4813C21.0961 17.5473 21.0842 17.6817 21.1659 17.7633ZM19 21.6696C19 20.8177 19.2112 20.0127 19.5833 19.3052C19.6415 19.1945 19.789 19.1721 19.8774 19.2605L27.8795 27.2626C30.4135 29.8003 34.5524 29.8018 37.088 27.2626L45.09 19.2605C45.1785 19.1721 45.3259 19.1945 45.3841 19.3052C45.7561 20.0127 45.9674 20.8177 45.9674 21.6696V32.33C45.9674 35.1479 43.6752 37.4367 40.8607 37.4367H24.1067C21.2923 37.4367 19 35.1479 19 32.33V21.6696Z" fill="#F1EFE3"/>
</svg>
